<?xml version="1.0" encoding="UTF-8" standalone="no"?>
<!DOCTYPE svg PUBLIC "-//W3C//DTD SVG 1.1//EN"
 "http://www.w3.org/Graphics/SVG/1.1/DTD/svg11.dtd">
<!-- Generated by graphviz version 5.0.0 (20220707.1540)
 -->
<!-- Title: dependencies Pages: 1 -->
<svg width="634pt" height="174pt"
 viewBox="0.00 0.00 634.00 173.80" xmlns="http://www.w3.org/2000/svg" xmlns:xlink="http://www.w3.org/1999/xlink">
<g id="graph0" class="graph" transform="scale(1 1) rotate(0) translate(4 169.8)">
<title>dependencies</title>
<polygon fill="white" stroke="transparent" points="-4,4 -4,-169.8 630,-169.8 630,4 -4,4"/>
<text text-anchor="middle" x="313" y="-8.2" font-family="sans-serif" font-size="14.00">dependencies</text>
<g id="clust1" class="cluster">
<title>cluster_ProductListModuleModule</title>
<polygon fill="none" stroke="black" stroke-dasharray="1,5" points="8,-32.8 8,-157.8 618,-157.8 618,-32.8 8,-32.8"/>
</g>
<g id="clust6" class="cluster">
<title>cluster_ProductListModuleModule_imports</title>
<polygon fill="none" stroke="black" points="530,-40.8 530,-92.8 610,-92.8 610,-40.8 530,-40.8"/>
</g>
<g id="clust2" class="cluster">
<title>cluster_ProductListModuleModule_declarations</title>
<polygon fill="none" stroke="black" points="16,-40.8 16,-92.8 522,-92.8 522,-40.8 16,-40.8"/>
</g>
<!-- ProductCardComponent -->
<g id="node1" class="node">
<title>ProductCardComponent</title>
<polygon fill="#ffffb3" stroke="black" points="514.1,-84.8 361.9,-84.8 361.9,-48.8 514.1,-48.8 514.1,-84.8"/>
<text text-anchor="middle" x="438" y="-62.6" font-family="Times,serif" font-size="14.00">ProductCardComponent</text>
</g>
<!-- ProductListModuleModule -->
<g id="node4" class="node">
<title>ProductListModuleModule</title>
<polygon fill="#8dd3c7" stroke="black" points="436.44,-149.8 433.44,-153.8 412.44,-153.8 409.44,-149.8 267.56,-149.8 267.56,-113.8 436.44,-113.8 436.44,-149.8"/>
<text text-anchor="middle" x="352" y="-127.6" font-family="Times,serif" font-size="14.00">ProductListModuleModule</text>
</g>
<!-- ProductCardComponent&#45;&gt;ProductListModuleModule -->
<g id="edge1" class="edge">
<title>ProductCardComponent&#45;&gt;ProductListModuleModule</title>
<path fill="none" stroke="black" d="M399.08,-84.91C399.08,-84.91 399.08,-103.79 399.08,-103.79"/>
<polygon fill="black" stroke="black" points="395.58,-103.79 399.08,-113.79 402.58,-103.79 395.58,-103.79"/>
</g>
<!-- ProductFilterComponent -->
<g id="node2" class="node">
<title>ProductFilterComponent</title>
<polygon fill="#ffffb3" stroke="black" points="343.71,-84.8 188.29,-84.8 188.29,-48.8 343.71,-48.8 343.71,-84.8"/>
<text text-anchor="middle" x="266" y="-62.6" font-family="Times,serif" font-size="14.00">ProductFilterComponent</text>
</g>
<!-- ProductFilterComponent&#45;&gt;ProductListModuleModule -->
<g id="edge2" class="edge">
<title>ProductFilterComponent&#45;&gt;ProductListModuleModule</title>
<path fill="none" stroke="black" d="M305.69,-84.91C305.69,-84.91 305.69,-103.79 305.69,-103.79"/>
<polygon fill="black" stroke="black" points="302.19,-103.79 305.69,-113.79 309.19,-103.79 302.19,-103.79"/>
</g>
<!-- ProductListComponent -->
<g id="node3" class="node">
<title>ProductListComponent</title>
<polygon fill="#ffffb3" stroke="black" points="170.16,-84.8 23.84,-84.8 23.84,-48.8 170.16,-48.8 170.16,-84.8"/>
<text text-anchor="middle" x="97" y="-62.6" font-family="Times,serif" font-size="14.00">ProductListComponent</text>
</g>
<!-- ProductListComponent&#45;&gt;ProductListModuleModule -->
<g id="edge3" class="edge">
<title>ProductListComponent&#45;&gt;ProductListModuleModule</title>
<path fill="none" stroke="black" d="M97,-84.91C97,-104.14 97,-131.8 97,-131.8 97,-131.8 257.44,-131.8 257.44,-131.8"/>
<polygon fill="black" stroke="black" points="257.44,-135.3 267.44,-131.8 257.44,-128.3 257.44,-135.3"/>
</g>
<!-- SalePipe -->
<g id="node5" class="node">
<title>SalePipe</title>
<polygon fill="#8dd3c7" stroke="black" points="602.49,-84.8 599.49,-88.8 578.49,-88.8 575.49,-84.8 537.51,-84.8 537.51,-48.8 602.49,-48.8 602.49,-84.8"/>
<text text-anchor="middle" x="570" y="-62.6" font-family="Times,serif" font-size="14.00">SalePipe</text>
</g>
<!-- SalePipe&#45;&gt;ProductListModuleModule -->
<g id="edge4" class="edge">
<title>SalePipe&#45;&gt;ProductListModuleModule</title>
<path fill="none" stroke="black" d="M570,-84.91C570,-104.14 570,-131.8 570,-131.8 570,-131.8 446.28,-131.8 446.28,-131.8"/>
<polygon fill="black" stroke="black" points="446.28,-128.3 436.28,-131.8 446.28,-135.3 446.28,-128.3"/>
</g>
</g>
</svg>
