<?xml version="1.0" encoding="UTF-8" standalone="no"?>
<!DOCTYPE svg PUBLIC "-//W3C//DTD SVG 1.1//EN"
 "http://www.w3.org/Graphics/SVG/1.1/DTD/svg11.dtd">
<!-- Generated by graphviz version 5.0.0 (20220707.1540)
 -->
<!-- Title: dependencies Pages: 1 -->
<svg width="210pt" height="174pt"
 viewBox="0.00 0.00 210.00 173.80" xmlns="http://www.w3.org/2000/svg" xmlns:xlink="http://www.w3.org/1999/xlink">
<g id="graph0" class="graph" transform="scale(1 1) rotate(0) translate(4 169.8)">
<title>dependencies</title>
<polygon fill="white" stroke="transparent" points="-4,4 -4,-169.8 206,-169.8 206,4 -4,4"/>
<text text-anchor="middle" x="101" y="-8.2" font-family="sans-serif" font-size="14.00">dependencies</text>
<g id="clust1" class="cluster">
<title>cluster_VerificationModuleModule</title>
<polygon fill="none" stroke="black" stroke-dasharray="1,5" points="8,-32.8 8,-157.8 194,-157.8 194,-32.8 8,-32.8"/>
</g>
<g id="clust2" class="cluster">
<title>cluster_VerificationModuleModule_declarations</title>
<polygon fill="none" stroke="black" points="23,-40.8 23,-92.8 179,-92.8 179,-40.8 23,-40.8"/>
</g>
<!-- AccVerifyComponent -->
<g id="node1" class="node">
<title>AccVerifyComponent</title>
<polygon fill="#ffffb3" stroke="black" points="171.41,-84.8 30.59,-84.8 30.59,-48.8 171.41,-48.8 171.41,-84.8"/>
<text text-anchor="middle" x="101" y="-62.6" font-family="Times,serif" font-size="14.00">AccVerifyComponent</text>
</g>
<!-- VerificationModuleModule -->
<g id="node2" class="node">
<title>VerificationModuleModule</title>
<polygon fill="#8dd3c7" stroke="black" points="186.24,-149.8 183.24,-153.8 162.24,-153.8 159.24,-149.8 15.76,-149.8 15.76,-113.8 186.24,-113.8 186.24,-149.8"/>
<text text-anchor="middle" x="101" y="-127.6" font-family="Times,serif" font-size="14.00">VerificationModuleModule</text>
</g>
<!-- AccVerifyComponent&#45;&gt;VerificationModuleModule -->
<g id="edge1" class="edge">
<title>AccVerifyComponent&#45;&gt;VerificationModuleModule</title>
<path fill="none" stroke="black" d="M101,-84.91C101,-84.91 101,-103.79 101,-103.79"/>
<polygon fill="black" stroke="black" points="97.5,-103.79 101,-113.79 104.5,-103.79 97.5,-103.79"/>
</g>
</g>
</svg>
