<?xml version="1.0" encoding="UTF-8" standalone="no"?>
<!DOCTYPE svg PUBLIC "-//W3C//DTD SVG 1.1//EN"
 "http://www.w3.org/Graphics/SVG/1.1/DTD/svg11.dtd">
<!-- Generated by graphviz version 5.0.0 (20220707.1540)
 -->
<!-- Title: dependencies Pages: 1 -->
<svg width="689pt" height="247pt"
 viewBox="0.00 0.00 689.00 246.80" xmlns="http://www.w3.org/2000/svg" xmlns:xlink="http://www.w3.org/1999/xlink">
<g id="graph0" class="graph" transform="scale(1 1) rotate(0) translate(4 242.8)">
<title>dependencies</title>
<polygon fill="white" stroke="transparent" points="-4,4 -4,-242.8 685,-242.8 685,4 -4,4"/>
<text text-anchor="middle" x="340.5" y="-8.2" font-family="sans-serif" font-size="14.00">dependencies</text>
<g id="clust1" class="cluster">
<title>cluster_AppModule</title>
<polygon fill="none" stroke="black" stroke-dasharray="1,5" points="8,-32.8 8,-230.8 673,-230.8 673,-32.8 8,-32.8"/>
</g>
<g id="clust8" class="cluster">
<title>cluster_AppModule_bootstrap</title>
<polygon fill="none" stroke="black" points="307,-170.8 307,-222.8 431,-222.8 431,-170.8 307,-170.8"/>
</g>
<g id="clust6" class="cluster">
<title>cluster_AppModule_imports</title>
<polygon fill="none" stroke="black" points="438,-40.8 438,-92.8 665,-92.8 665,-40.8 438,-40.8"/>
</g>
<g id="clust2" class="cluster">
<title>cluster_AppModule_declarations</title>
<polygon fill="none" stroke="black" points="16,-40.8 16,-92.8 430,-92.8 430,-40.8 16,-40.8"/>
</g>
<!-- AppComponent -->
<g id="node1" class="node">
<title>AppComponent</title>
<polygon fill="#ffffb3" stroke="black" points="421.94,-84.8 316.06,-84.8 316.06,-48.8 421.94,-48.8 421.94,-84.8"/>
<text text-anchor="middle" x="369" y="-62.6" font-family="Times,serif" font-size="14.00">AppComponent</text>
</g>
<!-- AppModule -->
<g id="node4" class="node">
<title>AppModule</title>
<polygon fill="#8dd3c7" stroke="black" points="410.66,-149.8 407.66,-153.8 386.66,-153.8 383.66,-149.8 327.34,-149.8 327.34,-113.8 410.66,-113.8 410.66,-149.8"/>
<text text-anchor="middle" x="369" y="-127.6" font-family="Times,serif" font-size="14.00">AppModule</text>
</g>
<!-- AppComponent&#45;&gt;AppModule -->
<g id="edge1" class="edge">
<title>AppComponent&#45;&gt;AppModule</title>
<path fill="none" stroke="black" d="M369,-84.91C369,-84.91 369,-103.79 369,-103.79"/>
<polygon fill="black" stroke="black" points="365.5,-103.79 369,-113.79 372.5,-103.79 365.5,-103.79"/>
</g>
<!-- HeaderComponent -->
<g id="node2" class="node">
<title>HeaderComponent</title>
<polygon fill="#ffffb3" stroke="black" points="297.75,-84.8 176.25,-84.8 176.25,-48.8 297.75,-48.8 297.75,-84.8"/>
<text text-anchor="middle" x="237" y="-62.6" font-family="Times,serif" font-size="14.00">HeaderComponent</text>
</g>
<!-- HeaderComponent&#45;&gt;AppModule -->
<g id="edge2" class="edge">
<title>HeaderComponent&#45;&gt;AppModule</title>
<path fill="none" stroke="black" d="M237,-84.82C237,-102.17 237,-125.8 237,-125.8 237,-125.8 317.23,-125.8 317.23,-125.8"/>
<polygon fill="black" stroke="black" points="317.23,-129.3 327.23,-125.8 317.23,-122.3 317.23,-129.3"/>
</g>
<!-- UserPageComponent -->
<g id="node3" class="node">
<title>UserPageComponent</title>
<polygon fill="#ffffb3" stroke="black" points="158.48,-84.8 23.52,-84.8 23.52,-48.8 158.48,-48.8 158.48,-84.8"/>
<text text-anchor="middle" x="91" y="-62.6" font-family="Times,serif" font-size="14.00">UserPageComponent</text>
</g>
<!-- UserPageComponent&#45;&gt;AppModule -->
<g id="edge3" class="edge">
<title>UserPageComponent&#45;&gt;AppModule</title>
<path fill="none" stroke="black" d="M91,-85.08C91,-106.12 91,-137.8 91,-137.8 91,-137.8 317.08,-137.8 317.08,-137.8"/>
<polygon fill="black" stroke="black" points="317.08,-141.3 327.08,-137.8 317.08,-134.3 317.08,-141.3"/>
</g>
<!-- AppComponent  -->
<g id="node7" class="node">
<title>AppComponent </title>
<polygon fill="#80b1d3" stroke="black" points="423.44,-214.8 314.56,-214.8 314.56,-178.8 423.44,-178.8 423.44,-214.8"/>
<text text-anchor="middle" x="369" y="-192.6" font-family="Times,serif" font-size="14.00">AppComponent </text>
</g>
<!-- AppModule&#45;&gt;AppComponent  -->
<g id="edge6" class="edge">
<title>AppModule&#45;&gt;AppComponent </title>
<path fill="none" stroke="black" stroke-dasharray="1,5" d="M369,-149.91C369,-149.91 369,-168.79 369,-168.79"/>
<polygon fill="black" stroke="black" points="365.5,-168.79 369,-178.79 372.5,-168.79 365.5,-168.79"/>
</g>
<!-- AppRoutingModule -->
<g id="node5" class="node">
<title>AppRoutingModule</title>
<polygon fill="#8dd3c7" stroke="black" points="657.28,-84.8 654.28,-88.8 633.28,-88.8 630.28,-84.8 528.72,-84.8 528.72,-48.8 657.28,-48.8 657.28,-84.8"/>
<text text-anchor="middle" x="593" y="-62.6" font-family="Times,serif" font-size="14.00">AppRoutingModule</text>
</g>
<!-- AppRoutingModule&#45;&gt;AppModule -->
<g id="edge4" class="edge">
<title>AppRoutingModule&#45;&gt;AppModule</title>
<path fill="none" stroke="black" d="M593,-85.08C593,-106.12 593,-137.8 593,-137.8 593,-137.8 420.87,-137.8 420.87,-137.8"/>
<polygon fill="black" stroke="black" points="420.87,-134.3 410.87,-137.8 420.87,-141.3 420.87,-134.3"/>
</g>
<!-- SalePipe -->
<g id="node6" class="node">
<title>SalePipe</title>
<polygon fill="#8dd3c7" stroke="black" points="510.49,-84.8 507.49,-88.8 486.49,-88.8 483.49,-84.8 445.51,-84.8 445.51,-48.8 510.49,-48.8 510.49,-84.8"/>
<text text-anchor="middle" x="478" y="-62.6" font-family="Times,serif" font-size="14.00">SalePipe</text>
</g>
<!-- SalePipe&#45;&gt;AppModule -->
<g id="edge5" class="edge">
<title>SalePipe&#45;&gt;AppModule</title>
<path fill="none" stroke="black" d="M478,-84.82C478,-102.17 478,-125.8 478,-125.8 478,-125.8 420.83,-125.8 420.83,-125.8"/>
<polygon fill="black" stroke="black" points="420.83,-122.3 410.83,-125.8 420.83,-129.3 420.83,-122.3"/>
</g>
</g>
</svg>
