<?xml version="1.0" encoding="UTF-8" standalone="no"?>
<!DOCTYPE svg PUBLIC "-//W3C//DTD SVG 1.1//EN"
 "http://www.w3.org/Graphics/SVG/1.1/DTD/svg11.dtd">
<!-- Generated by graphviz version 5.0.0 (20220707.1540)
 -->
<!-- Title: dependencies Pages: 1 -->
<svg width="276pt" height="174pt"
 viewBox="0.00 0.00 276.00 173.80" xmlns="http://www.w3.org/2000/svg" xmlns:xlink="http://www.w3.org/1999/xlink">
<g id="graph0" class="graph" transform="scale(1 1) rotate(0) translate(4 169.8)">
<title>dependencies</title>
<polygon fill="white" stroke="transparent" points="-4,4 -4,-169.8 272,-169.8 272,4 -4,4"/>
<text text-anchor="middle" x="134" y="-8.2" font-family="sans-serif" font-size="14.00">dependencies</text>
<g id="clust1" class="cluster">
<title>cluster_CartPageModuleModule</title>
<polygon fill="none" stroke="black" stroke-dasharray="1,5" points="8,-32.8 8,-157.8 260,-157.8 260,-32.8 8,-32.8"/>
</g>
<g id="clust2" class="cluster">
<title>cluster_CartPageModuleModule_declarations</title>
<polygon fill="none" stroke="black" points="104,-40.8 104,-92.8 252,-92.8 252,-40.8 104,-40.8"/>
</g>
<g id="clust4" class="cluster">
<title>cluster_CartPageModuleModule_imports</title>
<polygon fill="none" stroke="black" points="16,-40.8 16,-92.8 96,-92.8 96,-40.8 16,-40.8"/>
</g>
<!-- CartPageComponent -->
<g id="node1" class="node">
<title>CartPageComponent</title>
<polygon fill="#ffffb3" stroke="black" points="244.15,-84.8 111.85,-84.8 111.85,-48.8 244.15,-48.8 244.15,-84.8"/>
<text text-anchor="middle" x="178" y="-62.6" font-family="Times,serif" font-size="14.00">CartPageComponent</text>
</g>
<!-- CartPageModuleModule -->
<g id="node2" class="node">
<title>CartPageModuleModule</title>
<polygon fill="#8dd3c7" stroke="black" points="211.42,-149.8 208.42,-153.8 187.42,-153.8 184.42,-149.8 56.58,-149.8 56.58,-113.8 211.42,-113.8 211.42,-149.8"/>
<text text-anchor="middle" x="134" y="-127.6" font-family="Times,serif" font-size="14.00">CartPageModuleModule</text>
</g>
<!-- CartPageComponent&#45;&gt;CartPageModuleModule -->
<g id="edge1" class="edge">
<title>CartPageComponent&#45;&gt;CartPageModuleModule</title>
<path fill="none" stroke="black" d="M161.44,-84.91C161.44,-84.91 161.44,-103.79 161.44,-103.79"/>
<polygon fill="black" stroke="black" points="157.94,-103.79 161.44,-113.79 164.94,-103.79 157.94,-103.79"/>
</g>
<!-- SalePipe -->
<g id="node3" class="node">
<title>SalePipe</title>
<polygon fill="#8dd3c7" stroke="black" points="88.49,-84.8 85.49,-88.8 64.49,-88.8 61.49,-84.8 23.51,-84.8 23.51,-48.8 88.49,-48.8 88.49,-84.8"/>
<text text-anchor="middle" x="56" y="-62.6" font-family="Times,serif" font-size="14.00">SalePipe</text>
</g>
<!-- SalePipe&#45;&gt;CartPageModuleModule -->
<g id="edge2" class="edge">
<title>SalePipe&#45;&gt;CartPageModuleModule</title>
<path fill="none" stroke="black" d="M72.64,-84.91C72.64,-84.91 72.64,-103.79 72.64,-103.79"/>
<polygon fill="black" stroke="black" points="69.14,-103.79 72.64,-113.79 76.14,-103.79 69.14,-103.79"/>
</g>
</g>
</svg>
