<?xml version="1.0" encoding="UTF-8" standalone="no"?>
<!DOCTYPE svg PUBLIC "-//W3C//DTD SVG 1.1//EN"
 "http://www.w3.org/Graphics/SVG/1.1/DTD/svg11.dtd">
<!-- Generated by graphviz version 5.0.0 (20220707.1540)
 -->
<!-- Title: dependencies Pages: 1 -->
<svg width="696pt" height="174pt"
 viewBox="0.00 0.00 696.00 173.80" xmlns="http://www.w3.org/2000/svg" xmlns:xlink="http://www.w3.org/1999/xlink">
<g id="graph0" class="graph" transform="scale(1 1) rotate(0) translate(4 169.8)">
<title>dependencies</title>
<polygon fill="white" stroke="transparent" points="-4,4 -4,-169.8 692,-169.8 692,4 -4,4"/>
<text text-anchor="middle" x="344" y="-8.2" font-family="sans-serif" font-size="14.00">dependencies</text>
<g id="clust1" class="cluster">
<title>cluster_ProductAdminModuleModule</title>
<polygon fill="none" stroke="black" stroke-dasharray="1,5" points="8,-32.8 8,-157.8 680,-157.8 680,-32.8 8,-32.8"/>
</g>
<g id="clust2" class="cluster">
<title>cluster_ProductAdminModuleModule_declarations</title>
<polygon fill="none" stroke="black" points="16,-40.8 16,-92.8 672,-92.8 672,-40.8 16,-40.8"/>
</g>
<!-- DialogDeleteProductComponent -->
<g id="node1" class="node">
<title>DialogDeleteProductComponent</title>
<polygon fill="#ffffb3" stroke="black" points="663.52,-84.8 464.48,-84.8 464.48,-48.8 663.52,-48.8 663.52,-84.8"/>
<text text-anchor="middle" x="564" y="-62.6" font-family="Times,serif" font-size="14.00">DialogDeleteProductComponent</text>
</g>
<!-- ProductAdminModuleModule -->
<g id="node4" class="node">
<title>ProductAdminModuleModule</title>
<polygon fill="#8dd3c7" stroke="black" points="418.55,-149.8 415.55,-153.8 394.55,-153.8 391.55,-149.8 233.45,-149.8 233.45,-113.8 418.55,-113.8 418.55,-149.8"/>
<text text-anchor="middle" x="326" y="-127.6" font-family="Times,serif" font-size="14.00">ProductAdminModuleModule</text>
</g>
<!-- DialogDeleteProductComponent&#45;&gt;ProductAdminModuleModule -->
<g id="edge1" class="edge">
<title>DialogDeleteProductComponent&#45;&gt;ProductAdminModuleModule</title>
<path fill="none" stroke="black" d="M564,-84.91C564,-104.14 564,-131.8 564,-131.8 564,-131.8 428.7,-131.8 428.7,-131.8"/>
<polygon fill="black" stroke="black" points="428.7,-128.3 418.7,-131.8 428.7,-135.3 428.7,-128.3"/>
</g>
<!-- DialogNewProductAttributeComponent -->
<g id="node2" class="node">
<title>DialogNewProductAttributeComponent</title>
<polygon fill="#ffffb3" stroke="black" points="445.97,-84.8 206.03,-84.8 206.03,-48.8 445.97,-48.8 445.97,-84.8"/>
<text text-anchor="middle" x="326" y="-62.6" font-family="Times,serif" font-size="14.00">DialogNewProductAttributeComponent</text>
</g>
<!-- DialogNewProductAttributeComponent&#45;&gt;ProductAdminModuleModule -->
<g id="edge2" class="edge">
<title>DialogNewProductAttributeComponent&#45;&gt;ProductAdminModuleModule</title>
<path fill="none" stroke="black" d="M326,-84.91C326,-84.91 326,-103.79 326,-103.79"/>
<polygon fill="black" stroke="black" points="322.5,-103.79 326,-113.79 329.5,-103.79 322.5,-103.79"/>
</g>
<!-- ProductAdminComponent -->
<g id="node3" class="node">
<title>ProductAdminComponent</title>
<polygon fill="#ffffb3" stroke="black" points="187.77,-84.8 24.23,-84.8 24.23,-48.8 187.77,-48.8 187.77,-84.8"/>
<text text-anchor="middle" x="106" y="-62.6" font-family="Times,serif" font-size="14.00">ProductAdminComponent</text>
</g>
<!-- ProductAdminComponent&#45;&gt;ProductAdminModuleModule -->
<g id="edge3" class="edge">
<title>ProductAdminComponent&#45;&gt;ProductAdminModuleModule</title>
<path fill="none" stroke="black" d="M106,-84.91C106,-104.14 106,-131.8 106,-131.8 106,-131.8 223.34,-131.8 223.34,-131.8"/>
<polygon fill="black" stroke="black" points="223.34,-135.3 233.34,-131.8 223.34,-128.3 223.34,-135.3"/>
</g>
</g>
</svg>
